<?xml version="1.0" encoding="UTF-8" standalone="no"?>
<svg
   inkscape:version="1.1 (c68e22c387, 2021-05-23)"
   height="640"
   width="1280"
   sodipodi:docname="Oxto-SocialCard.svg"
   id="svg16"
   version="1.1"
   y="0px"
   x="0px"
   viewBox="0 0 1280 640"
   inkscape:export-filename="D:\Projects\OpenSource\Oxto\graphics\Oxto-SocialCard.png"
   inkscape:export-xdpi="96"
   inkscape:export-ydpi="96"
   xmlns:inkscape="http://www.inkscape.org/namespaces/inkscape"
   xmlns:sodipodi="http://sodipodi.sourceforge.net/DTD/sodipodi-0.dtd"
   xmlns="http://www.w3.org/2000/svg"
   xmlns:svg="http://www.w3.org/2000/svg"
   xmlns:rdf="http://www.w3.org/1999/02/22-rdf-syntax-ns#"
   xmlns:cc="http://creativecommons.org/ns#"
   xmlns:dc="http://purl.org/dc/elements/1.1/">
  <metadata
     id="metadata22">
    <rdf:RDF>
      <cc:Work
         rdf:about="">
        <dc:format>image/svg+xml</dc:format>
        <dc:type
           rdf:resource="http://purl.org/dc/dcmitype/StillImage" />
        <dc:title />
      </cc:Work>
    </rdf:RDF>
  </metadata>
  <defs
     id="defs20" />
  <sodipodi:namedview
     inkscape:bbox-paths="false"
     inkscape:snap-nodes="false"
     inkscape:snap-global="true"
     borderlayer="true"
     width="1280mm"
     units="px"
     inkscape:current-layer="svg16"
     inkscape:window-maximized="1"
     inkscape:window-y="-8"
     inkscape:window-x="-8"
     inkscape:cy="319.83665"
     inkscape:cx="627.5855"
     inkscape:zoom="1.5304688"
     inkscape:snap-page="true"
     inkscape:bbox-nodes="true"
     inkscape:snap-bbox="true"
     fit-margin-bottom="1"
     fit-margin-right="0"
     fit-margin-left="1"
     fit-margin-top="1"
     showgrid="true"
     id="namedview18"
     inkscape:window-height="1377"
     inkscape:window-width="2560"
     inkscape:pageshadow="2"
     inkscape:pageopacity="0"
     guidetolerance="10"
     gridtolerance="10"
     objecttolerance="10"
     borderopacity="1"
     inkscape:document-rotation="0"
     bordercolor="#666666"
     pagecolor="#ffffff"
     inkscape:pagecheckerboard="0"
     inkscape:snap-grids="true">
    <sodipodi:guide
       id="guide877"
       orientation="0,4837.7953"
       position="160,2338.8976" />
    <sodipodi:guide
       id="guide879"
       orientation="2418.8976,0"
       position="1200,672" />
    <sodipodi:guide
       id="guide881"
       orientation="0,-4837.7953"
       position="1224,80" />
    <sodipodi:guide
       id="guide883"
       orientation="-2418.8976,0"
       position="80,645.3441" />
    <inkscape:grid
       spacingy="8"
       spacingx="8"
       id="grid885"
       type="xygrid" />
  </sodipodi:namedview>
  <rect
     ry="0"
     y="0"
     x="0"
     height="640"
     width="1280"
     id="rect855"
     style="fill:#f9e9ec;fill-opacity:1;stroke:none;stroke-width:0;stroke-linejoin:round;stroke-miterlimit:4;stroke-dasharray:none" />
  <text
     id="text835"
     y="274.24576"
     x="362.34186"
     style="font-style:normal;font-variant:normal;font-weight:bold;font-stretch:normal;font-size:222.385px;line-height:1.25;font-family:Repo;-inkscape-font-specification:'Repo, Bold';font-variant-ligatures:normal;font-variant-caps:normal;font-variant-numeric:normal;font-variant-east-asian:normal;letter-spacing:0px;word-spacing:0px;fill:#98273b;fill-opacity:1;stroke:#98273b;stroke-width:5.27362;stroke-miterlimit:4;stroke-dasharray:none;stroke-opacity:0.503378;paint-order:normal"
     xml:space="preserve"
     transform="scale(1.4052987,0.71159249)"><tspan
       sodipodi:role="line"
       id="tspan1499"
       x="362.34186"
       y="274.24576"
       style="stroke-width:5.27362">Oxto</tspan></text>
  <text
     transform="scale(1.39003,0.71940894)"
     id="text839"
     y="392.9704"
     x="620.45667"
     style="font-style:normal;font-variant:normal;font-weight:bold;font-stretch:normal;font-size:86.0901px;line-height:1.05;font-family:'Pragati Narrow';-inkscape-font-specification:'Pragati Narrow, Bold';font-variant-ligatures:normal;font-variant-caps:normal;font-variant-numeric:normal;font-variant-east-asian:normal;letter-spacing:0px;word-spacing:0px;text-anchor:middle;fill:#98273b;fill-opacity:1;stroke:#98273b;stroke-width:3.04063;stroke-miterlimit:4;stroke-dasharray:none;stroke-opacity:0.503378;paint-order:normal"
     xml:space="preserve"><tspan
       sodipodi:role="line"
       id="tspan1547"
       x="620.45667"
       y="392.9704"
       style="stroke-width:3.04063">This is just</tspan><tspan
       sodipodi:role="line"
       id="tspan1549"
       x="620.45667"
       y="483.36499"
       style="stroke-width:3.04063">a test project</tspan><tspan
       sodipodi:role="line"
       id="tspan1551"
       x="620.45667"
       y="573.75958"
       style="stroke-width:3.04063">without even</tspan><tspan
       sodipodi:role="line"
       id="tspan1553"
       x="620.45667"
       y="664.15424"
       style="stroke-width:3.04063">a serious name.</tspan></text>
  <text
     id="text835-8-9"
     y="551.9494"
     x="304.81674"
     style="font-style:normal;font-variant:normal;font-weight:bold;font-stretch:normal;font-size:39.2563px;line-height:1.25;font-family:Consolas;-inkscape-font-specification:'Consolas, Bold';font-variant-ligatures:normal;font-variant-caps:normal;font-variant-numeric:normal;font-variant-east-asian:normal;letter-spacing:0px;word-spacing:0px;fill:#331524;fill-opacity:1;stroke:none;stroke-width:0.464583"
     xml:space="preserve"><tspan
       sodipodi:role="line"
       id="tspan1573"
       x="304.81674"
       y="551.9494">https://github.com/tenacom/Oxto</tspan></text>
  <g
     id="g8090"
     transform="matrix(0.87719298,0,0,0.87719298,55.438596,55.438596)">
    <path
       id="path2244"
       d="m 193.0849,362.26994 10.21729,-10.21729 -23.79458,-23.79459 23.79458,-23.79458 -10.21729,-10.21729 -23.79458,23.79458 -23.79458,-23.79458 -10.21729,10.21729 23.79458,23.79458 -23.79458,23.79459 10.21729,10.21729 23.79458,-23.79459 z m -31.56232,-147.94117 -15.35484,-20.47071 -11.56129,8.67097 21.67742,28.90323 c 1.3729,1.82813 3.51174,2.89032 5.78065,2.89032 0.10116,0 0.20232,0 0.30348,-0.007 2.38452,-0.10116 4.55948,-1.36567 5.824,-3.3889 L 204.32103,173.12 192.07329,165.45342 Z m 58.34839,56.12284 H 118.70968 c -3.99587,0 -7.22581,3.22994 -7.22581,7.22581 v 101.16129 c 0,3.99587 3.22994,7.22581 7.22581,7.22581 h 101.16129 c 3.99587,0 7.2258,-3.22994 7.2258,-7.22581 V 277.67742 c 0,-3.99587 -3.22993,-7.22581 -7.2258,-7.22581 z m -7.22581,101.16129 h -86.70968 v -86.70967 h 86.70968 z M 349.93548,241.54839 c -15.94013,0 -28.90322,12.96309 -28.90322,28.90322 0,15.94013 12.96309,28.90323 28.90322,28.90323 15.94013,0 28.90323,-12.9631 28.90323,-28.90323 0,-15.94013 -12.9631,-28.90322 -28.90323,-28.90322 z m 0,43.35484 c -7.97006,0 -14.45161,-6.48155 -14.45161,-14.45162 0,-7.97006 6.48155,-14.45161 14.45161,-14.45161 7.97007,0 14.45162,6.48155 14.45162,14.45161 0,7.97007 -6.48155,14.45162 -14.45162,14.45162 z m 57.80646,-7.22581 v -14.45161 h -7.80388 c -1.22838,-8.54813 -4.59561,-16.39536 -9.55251,-23.00697 l 5.53497,-5.53497 -10.21729,-10.21729 -5.53497,5.53497 c -6.61161,-4.9569 -14.45884,-8.32413 -23.00697,-9.55252 v -7.80387 h -14.45161 v 7.80387 c -8.54813,1.22839 -16.39536,4.59562 -23.00697,9.55252 l -5.53497,-5.53497 -10.21729,10.21729 5.53497,5.53497 c -4.9569,6.61161 -8.32413,14.45884 -9.55252,23.00697 h -7.80387 v 14.45161 h 7.80387 c 1.22839,8.54813 4.59562,16.39535 9.55252,23.00697 l -5.53497,5.53496 10.21729,10.2173 5.53497,-5.53497 c 6.61161,4.9569 14.45884,8.3169 23.00697,9.55251 v 7.80387 h 14.45161 v -7.80387 c 8.54813,-1.22838 16.39536,-4.59561 23.00697,-9.55251 l 5.53497,5.53497 10.21729,-10.2173 -5.53497,-5.53496 c 4.9569,-6.61162 8.3169,-14.45884 9.55251,-23.00697 z m -21.67742,-7.22581 c 0,19.92155 -16.20749,36.12904 -36.12904,36.12904 -19.92154,0 -36.12903,-16.20749 -36.12903,-36.12904 0,-19.92155 16.20749,-36.12903 36.12903,-36.12903 19.92155,0 36.12904,16.20748 36.12904,36.12903 z m -7.22581,-101.16129 c 27.88439,0 50.58064,-22.69626 50.58064,-50.58064 0,-27.88439 -22.69625,-50.580648 -50.58064,-50.580648 -27.88439,0 -50.58065,22.696258 -50.58065,50.580648 0,27.88438 22.69626,50.58064 50.58065,50.58064 z m 0,-86.709675 c 19.92155,0 36.12903,16.207484 36.12903,36.129035 0,19.92155 -16.20748,36.12903 -36.12903,36.12903 -19.92155,0 -36.12903,-16.20748 -36.12903,-36.12903 0,-19.921551 16.20748,-36.129035 36.12903,-36.129035 z M 299.35484,140.3871 h 10.59303 c 1.27174,4.03922 2.89032,7.94838 4.86297,11.69858 l -7.50039,7.50038 c -2.82529,2.82529 -2.82529,7.392 0,10.21729 l 20.43458,20.43459 c 2.82529,2.82529 7.392,2.82529 10.21729,0 l 7.50039,-7.50039 c 3.75742,1.96542 7.66658,3.59122 11.69858,4.86297 v 10.59303 c 0,3.99587 3.22994,7.2258 7.22581,7.2258 h 28.90322 c 3.99587,0 7.22581,-3.22993 7.22581,-7.2258 v -10.59303 c 4.03922,-1.27175 7.94839,-2.89033 11.69858,-4.86297 l 7.50039,7.50039 c 2.82529,2.82529 7.392,2.82529 10.21729,0 l 20.43458,-20.43459 c 2.82529,-2.82529 2.82529,-7.392 0,-10.21729 l -7.50039,-7.50038 c 1.96542,-3.75742 3.59123,-7.66658 4.86297,-11.69858 h 10.59303 c 3.99587,0 7.22581,-3.22994 7.22581,-7.22581 v -28.90323 c 0,-3.99587 -3.22994,-7.225802 -7.22581,-7.225802 h -10.59303 c -1.27174,-4.039226 -2.89032,-7.948387 -4.86297,-11.698581 l 7.50039,-7.500387 c 2.82529,-2.82529 2.82529,-7.392 0,-10.21729 L 429.93239,47.181419 c -2.82529,-2.82529 -7.392,-2.82529 -10.21729,0 l -7.50039,7.500387 c -3.75019,-1.972645 -7.65936,-3.591225 -11.69858,-4.862967 V 39.225806 C 400.51613,35.229935 397.28619,32 393.29032,32 H 364.3871 c -3.99587,0 -7.22581,3.229935 -7.22581,7.225806 v 10.593033 c -4.03923,1.271742 -7.94839,2.890322 -11.69858,4.862967 l -7.50039,-7.500387 c -2.82529,-2.82529 -7.392,-2.82529 -10.21729,0 L 307.31045,67.616 c -2.82529,2.82529 -2.82529,7.392 0,10.21729 l 7.50039,7.500387 c -1.97265,3.750194 -3.59123,7.659355 -4.86297,11.698581 h -10.59303 c -3.99587,0 -7.22581,3.229932 -7.22581,7.225802 v 28.90323 c 0,3.99587 3.22994,7.22581 7.22581,7.22581 z m 7.22581,-28.90323 h 8.88774 c 3.37445,0 6.29367,-2.33393 7.04516,-5.62168 1.44516,-6.337029 3.94529,-12.3489 7.4209,-17.876642 1.79923,-2.861419 1.38013,-6.575483 -1.00439,-8.96 l -6.3009,-6.300903 10.21729,-10.21729 6.3009,6.300903 c 2.39175,2.398968 6.11304,2.803613 8.96,1.004387 5.52775,-3.475613 11.53962,-5.975742 17.87665,-7.420903 3.29497,-0.751484 5.6289,-3.677936 5.6289,-7.052387 v -8.887742 h 14.45162 v 8.887742 c 0,3.374451 2.33393,6.293677 5.62167,7.045161 6.33704,1.445161 12.34891,3.94529 17.87665,7.420903 2.85419,1.799226 6.56826,1.394581 8.96,-1.004387 l 6.3009,-6.300903 10.21729,10.21729 -6.3009,6.300904 c -2.38452,2.384516 -2.80361,6.105806 -1.00439,8.96 3.47561,5.527742 5.97574,11.539612 7.42091,17.876647 0.75148,3.29497 3.67793,5.6289 7.05238,5.6289 h 8.88774 v 14.45161 h -8.88774 c -3.37445,0 -6.29368,2.33394 -7.04516,5.62168 -1.44516,6.33703 -3.94529,12.3489 -7.4209,17.87665 -1.79923,2.86142 -1.38013,6.57548 1.00438,8.96 l 6.30091,6.3009 -10.21729,10.21729 -6.30091,-6.3009 c -2.39174,-2.39175 -6.11303,-2.80362 -8.96,-1.00439 -5.52774,3.47561 -11.53961,5.97574 -17.87664,7.4209 -3.29497,0.75149 -5.6289,3.67794 -5.6289,7.05239 v 8.88774 H 371.6129 V 182.08 c 0,-3.37445 -2.33393,-6.29368 -5.62167,-7.04516 -6.33704,-1.44516 -12.34891,-3.94529 -17.87665,-7.4209 -2.85419,-1.79923 -6.56826,-1.38736 -8.96,1.00438 l -6.3009,6.30091 -10.21729,-10.21729 6.3009,-6.30091 c 2.38452,-2.38451 2.80361,-6.1058 1.00439,-8.96 -3.47562,-5.52774 -5.97574,-11.53961 -7.42091,-17.87664 -0.75148,-3.29497 -3.67793,-5.62891 -7.05238,-5.62891 h -8.88774 z M 472.77419,422.19355 H 451.09677 V 190.96774 H 436.64516 V 422.19355 H 75.354839 V 183.74194 h 36.129031 v 7.2258 H 89.806452 c -3.995871,0 -7.225807,3.22994 -7.225807,7.22581 v 209.54839 c 0,3.99587 3.229936,7.2258 7.225807,7.2258 H 422.19355 c 3.99587,0 7.2258,-3.22993 7.2258,-7.2258 V 198.19355 H 414.96774 V 400.51613 H 97.032258 V 205.41935 h 14.451612 v 43.35484 c 0,3.99587 3.22994,7.22581 7.22581,7.22581 h 101.16129 c 3.99587,0 7.2258,-3.22994 7.2258,-7.22581 v -43.35484 h 65.03226 v -14.45161 h -65.03226 v -7.2258 h 65.03226 V 169.29032 H 227.09677 V 147.6129 c 0,-3.99587 -3.22993,-7.2258 -7.2258,-7.2258 H 118.70968 c -3.99587,0 -7.22581,3.22993 -7.22581,7.2258 v 21.67742 H 68.129032 c -3.995871,0 -7.225806,3.22994 -7.225806,7.22581 V 422.19355 H 39.225806 C 35.229935,422.19355 32,425.42348 32,429.41935 v 28.90323 C 32,470.27406 41.725935,480 53.677419,480 H 458.32258 C 470.27406,480 480,470.27406 480,458.32258 v -28.90323 c 0,-3.99587 -3.22994,-7.2258 -7.22581,-7.2258 z M 125.93548,154.83871 h 86.70968 v 86.70968 h -86.70968 z m 339.61291,303.48387 c 0,3.98865 -3.23716,7.22581 -7.22581,7.22581 H 53.677419 c -3.988645,0 -7.225806,-3.23716 -7.225806,-7.22581 V 436.64516 H 465.54839 Z"
       style="fill:none;stroke:#98273b;stroke-width:8;stroke-miterlimit:4;stroke-dasharray:none;stroke-opacity:0.498371" />
    <path
       id="path4174"
       d="m 193.0849,362.26994 10.21729,-10.21729 -23.79458,-23.79459 23.79458,-23.79458 -10.21729,-10.21729 -23.79458,23.79458 -23.79458,-23.79458 -10.21729,10.21729 23.79458,23.79458 -23.79458,23.79459 10.21729,10.21729 23.79458,-23.79459 z m -31.56232,-147.94117 -15.35484,-20.47071 -11.56129,8.67097 21.67742,28.90323 c 1.3729,1.82813 3.51174,2.89032 5.78065,2.89032 0.10116,0 0.20232,0 0.30348,-0.007 2.38452,-0.10116 4.55948,-1.36567 5.824,-3.3889 L 204.32103,173.12 192.07329,165.45342 Z m 58.34839,56.12284 H 118.70968 c -3.99587,0 -7.22581,3.22994 -7.22581,7.22581 v 101.16129 c 0,3.99587 3.22994,7.22581 7.22581,7.22581 h 101.16129 c 3.99587,0 7.2258,-3.22994 7.2258,-7.22581 V 277.67742 c 0,-3.99587 -3.22993,-7.22581 -7.2258,-7.22581 z m -7.22581,101.16129 h -86.70968 v -86.70967 h 86.70968 z M 349.93548,241.54839 c -15.94013,0 -28.90322,12.96309 -28.90322,28.90322 0,15.94013 12.96309,28.90323 28.90322,28.90323 15.94013,0 28.90323,-12.9631 28.90323,-28.90323 0,-15.94013 -12.9631,-28.90322 -28.90323,-28.90322 z m 0,43.35484 c -7.97006,0 -14.45161,-6.48155 -14.45161,-14.45162 0,-7.97006 6.48155,-14.45161 14.45161,-14.45161 7.97007,0 14.45162,6.48155 14.45162,14.45161 0,7.97007 -6.48155,14.45162 -14.45162,14.45162 z m 57.80646,-7.22581 v -14.45161 h -7.80388 c -1.22838,-8.54813 -4.59561,-16.39536 -9.55251,-23.00697 l 5.53497,-5.53497 -10.21729,-10.21729 -5.53497,5.53497 c -6.61161,-4.9569 -14.45884,-8.32413 -23.00697,-9.55252 v -7.80387 h -14.45161 v 7.80387 c -8.54813,1.22839 -16.39536,4.59562 -23.00697,9.55252 l -5.53497,-5.53497 -10.21729,10.21729 5.53497,5.53497 c -4.9569,6.61161 -8.32413,14.45884 -9.55252,23.00697 h -7.80387 v 14.45161 h 7.80387 c 1.22839,8.54813 4.59562,16.39535 9.55252,23.00697 l -5.53497,5.53496 10.21729,10.2173 5.53497,-5.53497 c 6.61161,4.9569 14.45884,8.3169 23.00697,9.55251 v 7.80387 h 14.45161 v -7.80387 c 8.54813,-1.22838 16.39536,-4.59561 23.00697,-9.55251 l 5.53497,5.53497 10.21729,-10.2173 -5.53497,-5.53496 c 4.9569,-6.61162 8.3169,-14.45884 9.55251,-23.00697 z m -21.67742,-7.22581 c 0,19.92155 -16.20749,36.12904 -36.12904,36.12904 -19.92154,0 -36.12903,-16.20749 -36.12903,-36.12904 0,-19.92155 16.20749,-36.12903 36.12903,-36.12903 19.92155,0 36.12904,16.20748 36.12904,36.12903 z m -7.22581,-101.16129 c 27.88439,0 50.58064,-22.69626 50.58064,-50.58064 0,-27.88439 -22.69625,-50.580648 -50.58064,-50.580648 -27.88439,0 -50.58065,22.696258 -50.58065,50.580648 0,27.88438 22.69626,50.58064 50.58065,50.58064 z m 0,-86.709675 c 19.92155,0 36.12903,16.207484 36.12903,36.129035 0,19.92155 -16.20748,36.12903 -36.12903,36.12903 -19.92155,0 -36.12903,-16.20748 -36.12903,-36.12903 0,-19.921551 16.20748,-36.129035 36.12903,-36.129035 z M 299.35484,140.3871 h 10.59303 c 1.27174,4.03922 2.89032,7.94838 4.86297,11.69858 l -7.50039,7.50038 c -2.82529,2.82529 -2.82529,7.392 0,10.21729 l 20.43458,20.43459 c 2.82529,2.82529 7.392,2.82529 10.21729,0 l 7.50039,-7.50039 c 3.75742,1.96542 7.66658,3.59122 11.69858,4.86297 v 10.59303 c 0,3.99587 3.22994,7.2258 7.22581,7.2258 h 28.90322 c 3.99587,0 7.22581,-3.22993 7.22581,-7.2258 v -10.59303 c 4.03922,-1.27175 7.94839,-2.89033 11.69858,-4.86297 l 7.50039,7.50039 c 2.82529,2.82529 7.392,2.82529 10.21729,0 l 20.43458,-20.43459 c 2.82529,-2.82529 2.82529,-7.392 0,-10.21729 l -7.50039,-7.50038 c 1.96542,-3.75742 3.59123,-7.66658 4.86297,-11.69858 h 10.59303 c 3.99587,0 7.22581,-3.22994 7.22581,-7.22581 v -28.90323 c 0,-3.99587 -3.22994,-7.225802 -7.22581,-7.225802 h -10.59303 c -1.27174,-4.039226 -2.89032,-7.948387 -4.86297,-11.698581 l 7.50039,-7.500387 c 2.82529,-2.82529 2.82529,-7.392 0,-10.21729 L 429.93239,47.181419 c -2.82529,-2.82529 -7.392,-2.82529 -10.21729,0 l -7.50039,7.500387 c -3.75019,-1.972645 -7.65936,-3.591225 -11.69858,-4.862967 V 39.225806 C 400.51613,35.229935 397.28619,32 393.29032,32 H 364.3871 c -3.99587,0 -7.22581,3.229935 -7.22581,7.225806 v 10.593033 c -4.03923,1.271742 -7.94839,2.890322 -11.69858,4.862967 l -7.50039,-7.500387 c -2.82529,-2.82529 -7.392,-2.82529 -10.21729,0 L 307.31045,67.616 c -2.82529,2.82529 -2.82529,7.392 0,10.21729 l 7.50039,7.500387 c -1.97265,3.750194 -3.59123,7.659355 -4.86297,11.698581 h -10.59303 c -3.99587,0 -7.22581,3.229932 -7.22581,7.225802 v 28.90323 c 0,3.99587 3.22994,7.22581 7.22581,7.22581 z m 7.22581,-28.90323 h 8.88774 c 3.37445,0 6.29367,-2.33393 7.04516,-5.62168 1.44516,-6.337029 3.94529,-12.3489 7.4209,-17.876642 1.79923,-2.861419 1.38013,-6.575483 -1.00439,-8.96 l -6.3009,-6.300903 10.21729,-10.21729 6.3009,6.300903 c 2.39175,2.398968 6.11304,2.803613 8.96,1.004387 5.52775,-3.475613 11.53962,-5.975742 17.87665,-7.420903 3.29497,-0.751484 5.6289,-3.677936 5.6289,-7.052387 v -8.887742 h 14.45162 v 8.887742 c 0,3.374451 2.33393,6.293677 5.62167,7.045161 6.33704,1.445161 12.34891,3.94529 17.87665,7.420903 2.85419,1.799226 6.56826,1.394581 8.96,-1.004387 l 6.3009,-6.300903 10.21729,10.21729 -6.3009,6.300904 c -2.38452,2.384516 -2.80361,6.105806 -1.00439,8.96 3.47561,5.527742 5.97574,11.539612 7.42091,17.876647 0.75148,3.29497 3.67793,5.6289 7.05238,5.6289 h 8.88774 v 14.45161 h -8.88774 c -3.37445,0 -6.29368,2.33394 -7.04516,5.62168 -1.44516,6.33703 -3.94529,12.3489 -7.4209,17.87665 -1.79923,2.86142 -1.38013,6.57548 1.00438,8.96 l 6.30091,6.3009 -10.21729,10.21729 -6.30091,-6.3009 c -2.39174,-2.39175 -6.11303,-2.80362 -8.96,-1.00439 -5.52774,3.47561 -11.53961,5.97574 -17.87664,7.4209 -3.29497,0.75149 -5.6289,3.67794 -5.6289,7.05239 v 8.88774 H 371.6129 V 182.08 c 0,-3.37445 -2.33393,-6.29368 -5.62167,-7.04516 -6.33704,-1.44516 -12.34891,-3.94529 -17.87665,-7.4209 -2.85419,-1.79923 -6.56826,-1.38736 -8.96,1.00438 l -6.3009,6.30091 -10.21729,-10.21729 6.3009,-6.30091 c 2.38452,-2.38451 2.80361,-6.1058 1.00439,-8.96 -3.47562,-5.52774 -5.97574,-11.53961 -7.42091,-17.87664 -0.75148,-3.29497 -3.67793,-5.62891 -7.05238,-5.62891 h -8.88774 z M 472.77419,422.19355 H 451.09677 V 190.96774 H 436.64516 V 422.19355 H 75.354839 V 183.74194 h 36.129031 v 7.2258 H 89.806452 c -3.995871,0 -7.225807,3.22994 -7.225807,7.22581 v 209.54839 c 0,3.99587 3.229936,7.2258 7.225807,7.2258 H 422.19355 c 3.99587,0 7.2258,-3.22993 7.2258,-7.2258 V 198.19355 H 414.96774 V 400.51613 H 97.032258 V 205.41935 h 14.451612 v 43.35484 c 0,3.99587 3.22994,7.22581 7.22581,7.22581 h 101.16129 c 3.99587,0 7.2258,-3.22994 7.2258,-7.22581 v -43.35484 h 65.03226 v -14.45161 h -65.03226 v -7.2258 h 65.03226 V 169.29032 H 227.09677 V 147.6129 c 0,-3.99587 -3.22993,-7.2258 -7.2258,-7.2258 H 118.70968 c -3.99587,0 -7.22581,3.22993 -7.22581,7.2258 v 21.67742 H 68.129032 c -3.995871,0 -7.225806,3.22994 -7.225806,7.22581 V 422.19355 H 39.225806 C 35.229935,422.19355 32,425.42348 32,429.41935 v 28.90323 C 32,470.27406 41.725935,480 53.677419,480 H 458.32258 C 470.27406,480 480,470.27406 480,458.32258 v -28.90323 c 0,-3.99587 -3.22994,-7.2258 -7.22581,-7.2258 z M 125.93548,154.83871 h 86.70968 v 86.70968 h -86.70968 z m 339.61291,303.48387 c 0,3.98865 -3.23716,7.22581 -7.22581,7.22581 H 53.677419 c -3.988645,0 -7.225806,-3.23716 -7.225806,-7.22581 V 436.64516 H 465.54839 Z"
       style="fill:#98273b;fill-opacity:1;stroke:none;stroke-width:2;stroke-miterlimit:4;stroke-dasharray:none;stroke-opacity:1" />
  </g>
</svg>
